<svg width="35" height="35" viewBox="0 0 35 35" fill="none" xmlns="http://www.w3.org/2000/svg">
<path d="M19.9747 17.328C19.9747 18.7896 18.7896 19.9747 17.328 19.9747C15.8665 19.9747 14.6814 18.7896 14.6814 17.328C14.6814 15.8665 15.8665 14.6814 17.328 14.6814C18.7896 14.6814 19.9747 15.8665 19.9747 17.328Z" fill="white"/>
<path d="M17.3281 0.125C7.80024 0.125 0.125 7.80024 0.125 17.3281C0.125 26.856 7.80024 34.5312 17.3281 34.5312C26.856 34.5312 34.5312 26.856 34.5312 17.3281C34.5312 7.80024 26.856 0.125 17.3281 0.125ZM8.0649 9.38822C8.0649 8.59423 8.59423 8.0649 9.38822 8.0649C10.1822 8.0649 10.7115 8.59423 10.7115 9.38822C10.7115 10.1822 10.1822 10.7115 9.38822 10.7115C8.59423 10.7115 8.0649 10.1822 8.0649 9.38822ZM17.4605 24.077L10.1822 26.062C9.25589 26.3267 8.32957 25.4004 8.59423 24.474L10.5792 17.1958C11.5055 14.0198 13.8875 11.5055 17.0635 10.7115L24.3417 8.72656C25.268 8.4619 26.1943 9.38822 25.9297 10.3145L23.9447 17.5928C23.1507 20.6364 20.6364 23.1507 17.4605 24.077ZM25.268 26.5913C24.474 26.5913 23.9447 26.062 23.9447 25.268C23.9447 24.474 24.474 23.9447 25.268 23.9447C26.062 23.9447 26.5913 24.474 26.5913 25.268C26.5913 26.062 26.062 26.5913 25.268 26.5913Z" fill="white"/>
</svg>
