<svg width="130" height="17" viewBox="0 0 130 17" fill="none" xmlns="http://www.w3.org/2000/svg">
<path d="M110.084 12.8652H108.15V16H105.885V12.8652H99.3906V11.127L105.914 1.68359H108.15V10.9609H110.084V12.8652ZM105.885 10.9609V7.41602C105.885 7.12305 105.888 6.82682 105.895 6.52734C105.908 6.22135 105.921 5.92839 105.934 5.64844C105.947 5.36849 105.96 5.11133 105.973 4.87695C105.986 4.63607 105.995 4.4375 106.002 4.28125H105.924C105.8 4.54167 105.663 4.80859 105.514 5.08203C105.364 5.34896 105.204 5.60938 105.035 5.86328L101.52 10.9609H105.885ZM112.154 14.7891C112.154 14.2552 112.291 13.8809 112.564 13.666C112.844 13.4447 113.183 13.334 113.58 13.334C113.977 13.334 114.315 13.4447 114.595 13.666C114.882 13.8809 115.025 14.2552 115.025 14.7891C115.025 15.3099 114.882 15.6875 114.595 15.9219C114.315 16.1497 113.977 16.2637 113.58 16.2637C113.183 16.2637 112.844 16.1497 112.564 15.9219C112.291 15.6875 112.154 15.3099 112.154 14.7891ZM122.446 1.52734C123.273 1.52734 124.019 1.65755 124.683 1.91797C125.347 2.17188 125.874 2.55273 126.265 3.06055C126.655 3.56836 126.851 4.19661 126.851 4.94531C126.851 5.52474 126.73 6.0293 126.489 6.45898C126.255 6.88867 125.936 7.26628 125.532 7.5918C125.129 7.91081 124.676 8.19401 124.175 8.44141C124.735 8.71484 125.249 9.0306 125.718 9.38867C126.193 9.74023 126.574 10.1536 126.861 10.6289C127.154 11.1042 127.3 11.6608 127.3 12.2988C127.3 13.0996 127.095 13.793 126.685 14.3789C126.281 14.9583 125.718 15.4076 124.995 15.7266C124.273 16.0391 123.43 16.1953 122.466 16.1953C121.431 16.1953 120.549 16.0423 119.82 15.7363C119.09 15.4303 118.537 14.9941 118.159 14.4277C117.782 13.8548 117.593 13.1712 117.593 12.377C117.593 11.7194 117.723 11.1497 117.984 10.668C118.244 10.1862 118.592 9.76953 119.029 9.41797C119.471 9.06641 119.956 8.77018 120.484 8.5293C120.034 8.26237 119.624 7.96289 119.253 7.63086C118.882 7.29232 118.586 6.90495 118.364 6.46875C118.15 6.02604 118.042 5.51497 118.042 4.93555C118.042 4.19336 118.241 3.57161 118.638 3.07031C119.035 2.5625 119.566 2.17839 120.23 1.91797C120.9 1.65755 121.639 1.52734 122.446 1.52734ZM119.78 12.2891C119.78 12.9141 120.002 13.4284 120.445 13.832C120.887 14.2357 121.548 14.4375 122.427 14.4375C123.299 14.4375 123.963 14.2389 124.419 13.8418C124.875 13.4447 125.103 12.9206 125.103 12.2695C125.103 11.8529 124.986 11.485 124.751 11.166C124.523 10.847 124.214 10.5638 123.823 10.3164C123.439 10.0625 123.013 9.82812 122.544 9.61328L122.232 9.48633C121.724 9.70117 121.288 9.94531 120.923 10.2188C120.558 10.4857 120.275 10.7884 120.073 11.127C119.878 11.4655 119.78 11.8529 119.78 12.2891ZM122.427 3.29492C121.795 3.29492 121.275 3.45117 120.864 3.76367C120.461 4.06966 120.259 4.51237 120.259 5.0918C120.259 5.50195 120.357 5.85352 120.552 6.14648C120.754 6.43945 121.024 6.69336 121.362 6.9082C121.701 7.11654 122.075 7.31185 122.486 7.49414C122.883 7.31836 123.241 7.1263 123.56 6.91797C123.885 6.70312 124.142 6.44922 124.331 6.15625C124.527 5.85677 124.624 5.4987 124.624 5.08203C124.624 4.50911 124.419 4.06966 124.009 3.76367C123.605 3.45117 123.078 3.29492 122.427 3.29492Z" fill="#323232"/>
<path d="M12.9776 6.91636C12.9229 6.74006 12.7776 6.61141 12.6028 6.58476L8.67358 5.98552L6.91662 2.24943C6.76023 1.91686 6.24018 1.91686 6.08368 2.24943L4.32672 5.98552L0.397482 6.58468C0.222649 6.61132 0.0773596 6.73998 0.0227324 6.91627C-0.0318843 7.09279 0.0137162 7.28626 0.140153 7.4159L2.98321 10.324L2.31195 14.4304C2.28221 14.6131 2.35392 14.798 2.49673 14.9069C2.64006 15.0159 2.82951 15.0304 2.9857 14.944L6.49999 13.0051L10.0143 14.944C10.1704 15.0299 10.3598 15.0161 10.5032 14.9069C10.6461 14.798 10.7177 14.6131 10.688 14.4304L10.0168 10.324L12.8598 7.4159C12.9864 7.28626 13.0319 7.09288 12.9773 6.91639L12.9776 6.91636Z" fill="#FFB800"/>
<path d="M31.9776 6.91636C31.9229 6.74006 31.7776 6.61141 31.6028 6.58476L27.6736 5.98552L25.9166 2.24943C25.7602 1.91686 25.2402 1.91686 25.0837 2.24943L23.3267 5.98552L19.3975 6.58468C19.2226 6.61132 19.0774 6.73998 19.0227 6.91627C18.9681 7.09279 19.0137 7.28626 19.1402 7.4159L21.9832 10.324L21.312 14.4304C21.2822 14.6131 21.3539 14.798 21.4967 14.9069C21.6401 15.0159 21.8295 15.0304 21.9857 14.944L25.5 13.0051L29.0143 14.944C29.1704 15.0299 29.3598 15.0161 29.5032 14.9069C29.6461 14.798 29.7177 14.6131 29.688 14.4304L29.0168 10.324L31.8598 7.4159C31.9864 7.28626 32.0319 7.09288 31.9773 6.91639L31.9776 6.91636Z" fill="#FFB800"/>
<path d="M50.9776 6.91636C50.9229 6.74006 50.7776 6.61141 50.6028 6.58476L46.6736 5.98552L44.9166 2.24943C44.7602 1.91686 44.2402 1.91686 44.0837 2.24943L42.3267 5.98552L38.3975 6.58468C38.2226 6.61132 38.0774 6.73998 38.0227 6.91627C37.9681 7.09279 38.0137 7.28626 38.1402 7.4159L40.9832 10.324L40.312 14.4304C40.2822 14.6131 40.3539 14.798 40.4967 14.9069C40.6401 15.0159 40.8295 15.0304 40.9857 14.944L44.5 13.0051L48.0143 14.944C48.1704 15.0299 48.3598 15.0161 48.5032 14.9069C48.6461 14.798 48.7177 14.6131 48.688 14.4304L48.0168 10.324L50.8598 7.4159C50.9864 7.28626 51.0319 7.09288 50.9773 6.91639L50.9776 6.91636Z" fill="#FFB800"/>
<path d="M69.9776 6.91636C69.9229 6.74006 69.7776 6.61141 69.6028 6.58476L65.6736 5.98552L63.9166 2.24943C63.7602 1.91686 63.2402 1.91686 63.0837 2.24943L61.3267 5.98552L57.3975 6.58468C57.2226 6.61132 57.0774 6.73998 57.0227 6.91627C56.9681 7.09279 57.0137 7.28626 57.1402 7.4159L59.9832 10.324L59.312 14.4304C59.2822 14.6131 59.3539 14.798 59.4967 14.9069C59.6401 15.0159 59.8295 15.0304 59.9857 14.944L63.5 13.0051L67.0143 14.944C67.1704 15.0299 67.3598 15.0161 67.5032 14.9069C67.6461 14.798 67.7177 14.6131 67.688 14.4304L67.0168 10.324L69.8598 7.4159C69.9864 7.28626 70.0319 7.09288 69.9773 6.91639L69.9776 6.91636Z" fill="#FFB800"/>
<path d="M84.2207 6.19824L84.335 6.43945L84.5986 6.47949L88.4941 7.07324L85.6592 9.97461L85.4824 10.1553L85.5234 10.4043L86.1865 14.4678L82.7412 12.5674L82.5 12.4336L82.2588 12.5674L78.8125 14.4678L79.4766 10.4043L79.5176 10.1553L79.3408 9.97461L76.5049 7.07324L80.4023 6.47949L80.666 6.43945L80.7793 6.19824L82.5 2.53809L84.2207 6.19824Z" stroke="#FFB800"/>
</svg>
